HIERARCHY
ROOT Hips
{
 OFFSET 0.000000 0.000000 0.000000
 CHANNELS 6 Xposition Yposition Zposition Yrotation Xrotation Zrotation
 JOINT Chest
 {
  OFFSET 0.000000 9.585900 0.002600
  CHANNELS 3 Yrotation Xrotation Zrotation
  JOINT Chest2
  {
   OFFSET 0.000000 9.601200 -0.005300
   CHANNELS 3 Yrotation Xrotation Zrotation
   JOINT Chest3
   {
    OFFSET 0.000000 9.561800 0.000000
    CHANNELS 3 Yrotation Xrotation Zrotation
    JOINT Chest4
    {
     OFFSET 0.000000 9.552100 0.000000
     CHANNELS 3 Yrotation Xrotation Zrotation
     JOINT Neck
     {
      OFFSET 0.000000 14.453000 0.000000
      CHANNELS 3 Yrotation Xrotation Zrotation
      JOINT Head
      {
       OFFSET 0.000000 8.936500 -0.011300
       CHANNELS 3 Yrotation Xrotation Zrotation
       End Site
       {
        OFFSET 0.000000 17.073600 -0.006000
       }
      }
     }
     JOINT RightCollar
     {
      OFFSET -2.921100 9.558500 0.000000
      CHANNELS 3 Yrotation Xrotation Zrotation
      JOINT RightShoulder
      {
       OFFSET -13.519700 0.000000 0.000000
       CHANNELS 3 Yrotation Xrotation Zrotation
       JOINT RightElbow
       {
        OFFSET 0.000000 -29.696600 0.000000
        CHANNELS 3 Yrotation Xrotation Zrotation
        JOINT RightWrist
        {
         OFFSET 0.000000 -24.004700 0.000000
         CHANNELS 3 Yrotation Xrotation Zrotation
         End Site
         {
          OFFSET 0.000000 -17.728500 0.000000
         }
        }
       }
      }
     }
     JOINT LeftCollar
     {
      OFFSET 2.921100 9.558500 0.000000
      CHANNELS 3 Yrotation Xrotation Zrotation
      JOINT LeftShoulder
      {
       OFFSET 13.519700 0.000000 0.000000
       CHANNELS 3 Yrotation Xrotation Zrotation
       JOINT LeftElbow
       {
        OFFSET 0.000000 -29.696600 0.000000
        CHANNELS 3 Yrotation Xrotation Zrotation
        JOINT LeftWrist
        {
         OFFSET 0.000000 -24.004700 0.000000
         CHANNELS 3 Yrotation Xrotation Zrotation
         End Site
         {
          OFFSET 0.000000 -17.728500 0.000000
         }
        }
       }
      }
     }
    }
   }
  }
 }
 JOINT RightHip
 {
  OFFSET -7.771700 -0.012900 -0.001300
  CHANNELS 3 Yrotation Xrotation Zrotation
  JOINT RightKnee
  {
   OFFSET 0.000000 -40.869800 0.001200
   CHANNELS 3 Yrotation Xrotation Zrotation
   JOINT RightAnkle
   {
    OFFSET 0.000000 -39.717900 0.002100
    CHANNELS 3 Yrotation Xrotation Zrotation
    JOINT RightToe
    {
     OFFSET 0.000000 -4.965400 11.033500
     CHANNELS 3 Yrotation Xrotation Zrotation
     End Site
     {
      OFFSET 0.000000 -1.423100 5.872300
     }
    }
   }
  }
 }
 JOINT LeftHip
 {
  OFFSET 7.771700 -0.012900 -0.001300
  CHANNELS 3 Yrotation Xrotation Zrotation
  JOINT LeftKnee
  {
   OFFSET 0.000000 -40.869800 0.001200
   CHANNELS 3 Yrotation Xrotation Zrotation
   JOINT LeftAnkle
   {
    OFFSET 0.000000 -39.717900 0.002100
    CHANNELS 3 Yrotation Xrotation Zrotation
    JOINT LeftToe
    {
     OFFSET 0.000000 -4.965400 11.033500
     CHANNELS 3 Yrotation Xrotation Zrotation
     End Site
     {
      OFFSET 0.000000 -1.423100 5.872300
     }
    }
   }
  }
 }
}
MOTION
Frames: 11
Frame Time: 0.008333
-126.053111 58.293303 104.497846 176.302891 -27.073289 -0.768792 2.158962 20.085410 3.362919 0.210330 2.568896 0.340356 0.350503 4.171474 0.587533 1.777722 17.236308 2.689331 1.314816 11.474885 -3.025718 3.819509 -14.387711 -6.327999 2.177777 -1.475673 -1.010034 -0.944763 -15.140468 -16.238101 177.448625 -48.642430 -159.206649 13.285382 -13.980694 -50.690403 -8.401694 -2.656434 -3.569717 16.661456 -17.664755 3.713487 170.143887 -50.829488 171.462431 -5.880338 -4.267007 15.428439 4.369631 -47.680476 -1.402336 -9.859211 67.441192 -13.917611 7.442573 22.198436 8.875243 -0.050742 -15.838190 -0.312978 -6.791483 -45.533073 1.280664 24.123432 66.568880 22.193190 -16.295228 2.139095 -3.419781 0.079010 -0.202005 -0.296753
-126.050504 58.298623 104.474373 176.294922 -27.068487 -0.788083 2.178898 20.103748 3.372515 0.212363 2.587573 0.327705 0.352234 4.170265 0.585700 1.785619 17.217068 2.697975 1.300686 11.527206 -3.035411 3.797222 -14.323902 -6.312092 2.181446 -1.413299 -1.026766 -1.045715 -15.127061 -16.171850 177.290723 -48.470755 -159.225364 13.505544 -14.293229 -51.186989 -8.404891 -2.648592 -3.561883 16.494837 -17.640058 3.730320 171.002613 -51.141264 170.950689 -5.944925 -4.361978 15.692079 4.355969 -47.675234 -1.364570 -9.855171 67.458604 -13.925335 7.435904 22.164674 8.886721 -0.053184 -15.833784 -0.314182 -6.720827 -45.539831 1.260830 24.251666 66.590278 22.367897 -16.367383 2.112193 -3.371118 0.084838 -0.206292 -0.296887
-126.045069 58.301472 104.455946 176.293418 -27.036249 -0.827176 2.203954 20.141741 3.372703 0.211165 2.554444 0.347313 0.353037 4.168906 0.584169 1.794550 17.218068 2.687315 1.288872 11.567037 -3.024611 3.777743 -14.244110 -6.298875 2.188117 -1.369388 -1.026334 -1.106813 -15.163542 -16.121155 177.030680 -48.383798 -159.154912 13.648767 -14.475567 -51.540433 -8.413533 -2.603631 -3.570249 16.288812 -17.676893 3.757066 171.872293 -51.547043 170.432917 -5.990989 -4.413703 15.893034 4.317206 -47.705083 -1.298623 -9.845099 67.477068 -13.949157 7.482079 22.115509 8.961764 -0.099986 -15.818335 -0.340467 -6.682482 -45.570944 1.274651 24.322066 66.609869 22.484519 -16.436529 2.103744 -3.344069 0.108425 -0.204131 -0.233323
-126.040827 58.301030 104.444057 176.287555 -26.968621 -0.859732 2.223833 20.119178 3.380975 0.210546 2.543796 0.352636 0.353466 4.168093 0.583221 1.799552 17.218633 2.678100 1.290742 11.571740 -3.005849 3.752642 -14.100795 -6.293726 2.201697 -1.323762 -1.029716 -1.168653 -15.199860 -16.071825 176.709246 -48.333072 -159.004107 13.716593 -14.558981 -51.754926 -8.425168 -2.549505 -3.594010 16.062239 -17.725870 3.784194 172.755028 -52.040106 169.905751 -6.029504 -4.419824 15.998360 4.288392 -47.770296 -1.245643 -9.831923 67.480299 -13.955338 7.490427 22.117914 8.991061 -0.113202 -15.831229 -0.347490 -6.665822 -45.638085 1.303529 24.388555 66.628359 22.585512 -16.474715 2.070325 -3.320773 0.112557 -0.174165 -0.180280
-126.038222 58.302165 104.429170 176.277530 -26.932562 -0.881730 2.241539 20.107599 3.391024 0.210598 2.552143 0.348381 0.353765 4.168213 0.582857 1.793935 17.244054 2.656356 1.289191 11.628383 -2.992556 3.737382 -14.012362 -6.282830 2.226415 -1.304329 -1.025191 -1.319476 -15.141819 -15.983726 176.384806 -48.225881 -158.767629 13.729313 -14.583683 -51.867250 -8.440500 -2.529566 -3.602492 15.831513 -17.763700 3.801970 173.666556 -52.603808 169.352468 -6.070552 -4.381992 15.992638 4.265738 -47.804891 -1.197752 -9.810699 67.482800 -13.960883 7.506242 22.141903 9.021875 -0.130947 -15.864663 -0.349080 -6.671046 -45.672479 1.336382 24.471345 66.645287 22.679684 -16.502255 2.045172 -3.301394 0.118249 -0.159321 -0.148221
-126.036485 58.302466 104.416300 176.267199 -26.897498 -0.903410 2.259413 20.079710 3.411754 0.210307 2.568899 0.340322 0.352200 4.178403 0.577752 1.801321 17.217032 2.668664 1.264869 11.746547 -3.008856 3.722898 -13.917037 -6.273627 2.232920 -1.238665 -1.049379 -1.403438 -15.149101 -15.915553 175.976626 -48.285114 -158.462935 13.713727 -14.591897 -51.930986 -8.482289 -2.460036 -3.655626 15.601443 -17.803559 3.809557 174.644037 -53.211918 168.736681 -6.118945 -4.303111 15.888671 4.240581 -47.841351 -1.154323 -9.784220 67.487549 -13.957608 7.530940 22.162137 9.051334 -0.150997 -15.894121 -0.351822 -6.638552 -45.706880 1.349763 24.490747 66.667393 22.733274 -16.532227 2.018723 -3.288388 0.125914 -0.142959 -0.113723
-126.035447 58.302048 104.405424 176.262057 -26.865416 -0.929592 2.275716 20.079216 3.425501 0.210635 2.544369 0.352225 0.347141 4.208343 0.561742 1.803435 17.214343 2.670853 1.252647 11.822023 -3.012880 3.707045 -13.792734 -6.265453 2.239126 -1.206002 -1.066526 -1.425172 -15.202236 -15.873312 175.520442 -48.507826 -158.123837 13.691536 -14.607347 -51.991133 -8.526972 -2.412304 -3.701963 15.380288 -17.837985 3.803656 175.730000 -53.835736 168.018981 -6.176787 -4.195259 15.713174 4.206451 -47.878129 -1.108601 -9.772059 67.494067 -13.959785 7.545894 22.187125 9.063651 -0.142590 -15.925180 -0.355702 -6.624759 -45.740467 1.373392 24.499185 66.692247 22.768484 -16.549816 1.995933 -3.282086 0.128604 -0.136037 -0.095274
-126.038984 58.300608 104.396962 176.247914 -26.832846 -0.931379 2.289660 20.079664 3.413299 0.210220 2.546367 0.351903 0.349198 4.192796 0.569909 1.794751 17.239936 2.658787 1.243570 11.895364 -3.016554 3.691860 -13.665911 -6.252813 2.240861 -1.187207 -1.083526 -1.467155 -15.229477 -15.796643 175.064654 -48.802844 -157.727783 13.664401 -14.618987 -52.048228 -8.580451 -2.370002 -3.748904 15.182507 -17.865278 3.781197 176.943919 -54.452916 167.179192 -6.273563 -4.066433 15.479495 4.212906 -47.922781 -1.105772 -9.745053 67.509197 -13.950581 7.572789 22.218375 9.101415 -0.145877 -15.963313 -0.368807 -6.600483 -45.776999 1.376869 24.509702 66.714380 22.796569 -16.573168 1.982999 -3.266291 0.141141 -0.136450 -0.090170
-126.043785 58.299268 104.389251 176.234333 -26.812633 -0.931726 2.297599 20.130439 3.371325 0.216881 2.512233 0.374581 0.352375 4.176245 0.580457 1.782914 17.269077 2.638935 1.236797 11.970795 -3.014546 3.676215 -13.538907 -6.236462 2.238663 -1.174963 -1.093120 -1.444808 -15.294314 -15.671135 174.510121 -49.242739 -157.217300 13.626835 -14.593550 -52.068978 -8.645216 -2.327106 -3.791549 15.013364 -17.888793 3.735969 178.296981 -55.049958 166.201583 -6.405882 -3.913135 15.190238 4.233231 -47.950558 -1.112551 -9.742458 67.519342 -13.955915 7.593540 22.235103 9.131942 -0.156775 -15.986489 -0.374828 -6.586734 -45.804158 1.379730 24.531055 66.736023 22.829960 -16.587597 1.985010 -3.246654 0.144562 -0.142541 -0.077123
-126.049910 58.297629 104.383299 176.227705 -26.797669 -0.932283 2.297514 20.151559 3.346032 0.220184 2.516580 0.375956 0.352221 4.181427 0.578395 1.752808 17.343122 2.588232 1.282091 11.915196 -2.965600 3.646854 -13.348138 -6.222504 2.258508 -1.233407 -1.066115 -1.355859 -15.387318 -15.586974 173.954094 -49.820374 -156.727365 13.575101 -14.504186 -52.025468 -8.689622 -2.345740 -3.789739 14.864387 -17.906605 3.668264 179.775169 -55.622936 165.094331 -6.516355 -3.748234 14.881574 4.260332 -47.974903 -1.130826 -9.774889 67.528713 -13.989805 7.631661 22.259072 9.164489 -0.166114 -16.017345 -0.379841 -6.584027 -45.826204 1.380589 24.554208 66.754071 22.861287 -16.593944 1.985872 -3.239974 0.161565 -0.144688 -0.056660
-126.055376 58.296027 104.378870 176.231616 -26.789788 -0.944572 2.290292 20.170244 3.332448 0.220291 2.530536 0.371946 0.336868 4.226133 0.549277 1.780928 17.288644 2.619135 1.247561 12.046118 -2.981873 3.642562 -13.261827 -6.199333 2.237107 -1.204259 -1.079655 -1.205946 -15.494335 -15.503260 173.345510 -50.515257 -156.192824 13.500314 -14.336472 -51.912374 -8.767459 -2.285720 -3.847494 14.730445 -17.919432 3.583956 -178.684950 -56.175863 163.916862 -6.598392 -3.600591 14.596511 4.268192 -47.988714 -1.133956 -9.784619 67.537595 -14.000706 7.643298 22.277991 9.184590 -0.168345 -16.041894 -0.380634 -6.606192 -45.838486 1.395286 24.578525 66.767683 22.888578 -16.592888 1.982632 -3.235976 0.149845 -0.139913 -0.038816
